<svg width="34" height="31" viewBox="0 0 34 31" fill="none" xmlns="http://www.w3.org/2000/svg">
<path d="M17.0169 21.4933C19.4994 21.4933 21.5118 19.4808 21.5118 16.9984C21.5118 14.5159 19.4994 12.5034 17.0169 12.5034C14.5344 12.5034 12.522 14.5159 12.522 16.9984C12.522 19.4808 14.5344 21.4933 17.0169 21.4933Z" stroke="#D5D1D1" stroke-width="2.24747"/>
<path d="M13.6876 28.9848H20.3461C25.0223 28.9848 27.3612 28.9848 29.0408 27.8836C29.7657 27.4088 30.3899 26.7958 30.8777 26.0796C31.9999 24.4315 31.9999 22.1345 31.9999 17.5437C31.9999 12.9529 31.9999 10.656 30.8777 9.00783C30.3899 8.29163 29.7657 7.67862 29.0408 7.20386C27.962 6.49516 26.6105 6.24195 24.5413 6.15205C23.554 6.15205 22.7044 5.41787 22.5111 4.46645C22.3634 3.76953 21.9796 3.14499 21.4246 2.69836C20.8696 2.25174 20.1774 2.01042 19.4651 2.01521H14.5686C13.0882 2.01521 11.8132 3.04155 11.5225 4.46645C11.3292 5.41787 10.4797 6.15205 9.49229 6.15205C7.42462 6.24195 6.07314 6.49666 4.99286 7.20386C4.26848 7.67877 3.64479 8.29177 3.15743 9.00783C2.03369 10.656 2.03369 12.9514 2.03369 17.5437C2.03369 22.136 2.03369 24.43 3.15593 26.0796C3.64138 26.7928 4.26468 27.4056 4.99286 27.8836C6.67247 28.9848 9.01133 28.9848 13.6876 28.9848Z" stroke="#D5D1D1" stroke-width="2.24747"/>
<path d="M27.5051 12.5034H26.0068" stroke="#D5D1D1" stroke-width="2.24747" stroke-linecap="round"/>
</svg>
