<svg width="84" height="28" viewBox="0 0 84 28" fill="none" xmlns="http://www.w3.org/2000/svg">
<rect x="0.25" y="0.25" width="83.5" height="27.5" rx="3.75" stroke="black" stroke-width="0.5"/>
<path d="M10.674 16.57C10.3333 16.57 10.0207 16.5093 9.736 16.388C9.45133 16.2667 9.204 16.094 8.994 15.87C8.784 15.6413 8.62067 15.373 8.504 15.065C8.392 14.757 8.336 14.4187 8.336 14.05C8.336 13.7 8.39667 13.3757 8.518 13.077C8.644 12.7737 8.81667 12.5077 9.036 12.279C9.25533 12.0503 9.50967 11.873 9.799 11.747C10.0883 11.621 10.401 11.558 10.737 11.558C10.975 11.558 11.206 11.5953 11.43 11.67C11.6587 11.74 11.864 11.8403 12.046 11.971C12.2327 12.097 12.3843 12.2417 12.501 12.405L11.997 12.93C11.7963 12.7247 11.591 12.5707 11.381 12.468C11.171 12.3653 10.9563 12.314 10.737 12.314C10.5083 12.314 10.2937 12.3583 10.093 12.447C9.897 12.531 9.72433 12.65 9.575 12.804C9.43033 12.958 9.316 13.1423 9.232 13.357C9.148 13.567 9.106 13.798 9.106 14.05C9.106 14.316 9.14567 14.5587 9.225 14.778C9.309 14.9927 9.42567 15.177 9.575 15.331C9.72433 15.485 9.90167 15.604 10.107 15.688C10.317 15.7673 10.548 15.807 10.8 15.807C10.954 15.807 11.1057 15.786 11.255 15.744C11.4043 15.702 11.5443 15.6413 11.675 15.562C11.8057 15.4827 11.9247 15.3893 12.032 15.282L12.41 15.898C12.3027 16.024 12.1557 16.1383 11.969 16.241C11.787 16.3437 11.5817 16.4253 11.353 16.486C11.129 16.542 10.9027 16.57 10.674 16.57ZM13.255 16.5V11.32H13.976V13.581L13.85 13.665C13.8966 13.5017 13.9876 13.3523 14.123 13.217C14.2583 13.077 14.4193 12.965 14.606 12.881C14.7926 12.7923 14.984 12.748 15.18 12.748C15.46 12.748 15.6933 12.804 15.88 12.916C16.0666 13.0233 16.2066 13.189 16.3 13.413C16.3933 13.637 16.44 13.9193 16.44 14.26V16.5H15.719V14.309C15.719 14.099 15.691 13.9263 15.635 13.791C15.579 13.651 15.4926 13.5507 15.376 13.49C15.2593 13.4247 15.1146 13.3967 14.942 13.406C14.802 13.406 14.6736 13.4293 14.557 13.476C14.4403 13.518 14.3376 13.5787 14.249 13.658C14.165 13.7373 14.0973 13.8307 14.046 13.938C13.9993 14.0407 13.976 14.1527 13.976 14.274V16.5H13.619C13.5583 16.5 13.4976 16.5 13.437 16.5C13.3763 16.5 13.3156 16.5 13.255 16.5ZM19.5951 16.5V14.106C19.5951 13.9007 19.5204 13.735 19.3711 13.609C19.2264 13.4783 19.0421 13.413 18.8181 13.413C18.6127 13.413 18.4261 13.455 18.2581 13.539C18.0947 13.623 17.9454 13.7513 17.8101 13.924L17.3411 13.455C17.5604 13.217 17.7961 13.0397 18.0481 12.923C18.3047 12.8063 18.5801 12.748 18.8741 12.748C19.1541 12.748 19.3967 12.7947 19.6021 12.888C19.8074 12.9813 19.9661 13.119 20.0781 13.301C20.1901 13.4783 20.2461 13.6953 20.2461 13.952V16.5H19.5951ZM18.4961 16.57C18.2581 16.57 18.0457 16.5233 17.8591 16.43C17.6724 16.3367 17.5231 16.2083 17.4111 16.045C17.3037 15.877 17.2501 15.681 17.2501 15.457C17.2501 15.261 17.2851 15.0883 17.3551 14.939C17.4251 14.7897 17.5277 14.666 17.6631 14.568C17.8031 14.47 17.9757 14.3953 18.1811 14.344C18.3911 14.2927 18.6314 14.267 18.9021 14.267H19.9241L19.8611 14.841H18.8111C18.6711 14.841 18.5451 14.855 18.4331 14.883C18.3257 14.9063 18.2324 14.946 18.1531 15.002C18.0784 15.0533 18.0224 15.1163 17.9851 15.191C17.9477 15.261 17.9291 15.345 17.9291 15.443C17.9291 15.5457 17.9547 15.6367 18.0061 15.716C18.0574 15.7907 18.1274 15.849 18.2161 15.891C18.3047 15.933 18.4074 15.954 18.5241 15.954C18.6921 15.954 18.8507 15.926 19.0001 15.87C19.1541 15.8093 19.2894 15.7277 19.4061 15.625C19.5274 15.5223 19.6207 15.408 19.6861 15.282L19.8541 15.751C19.7561 15.9143 19.6347 16.0567 19.4901 16.178C19.3454 16.2993 19.1891 16.395 19.0211 16.465C18.8531 16.535 18.6781 16.57 18.4961 16.57ZM21.1573 16.5V12.825H21.8783V13.581L21.7523 13.665C21.799 13.5017 21.89 13.3523 22.0253 13.217C22.1607 13.077 22.3217 12.965 22.5083 12.881C22.695 12.7923 22.8863 12.748 23.0823 12.748C23.3623 12.748 23.5957 12.804 23.7823 12.916C23.969 13.0233 24.109 13.189 24.2023 13.413C24.2957 13.637 24.3423 13.9193 24.3423 14.26V16.5H23.6213V14.309C23.6213 14.099 23.5933 13.9263 23.5373 13.791C23.4813 13.651 23.395 13.5507 23.2783 13.49C23.1617 13.4247 23.017 13.3967 22.8443 13.406C22.7043 13.406 22.576 13.4293 22.4593 13.476C22.3427 13.518 22.24 13.5787 22.1513 13.658C22.0673 13.7373 21.9997 13.8307 21.9483 13.938C21.9017 14.0407 21.8783 14.1527 21.8783 14.274V16.5H21.5213C21.4607 16.5 21.4 16.5 21.3393 16.5C21.2787 16.5 21.218 16.5 21.1573 16.5ZM26.9654 18.11C26.7041 18.11 26.4427 18.068 26.1814 17.984C25.9247 17.9047 25.7171 17.7997 25.5584 17.669L25.8244 17.109C25.9644 17.2163 26.1371 17.3027 26.3424 17.368C26.5524 17.4333 26.7601 17.466 26.9654 17.466C27.2221 17.466 27.4367 17.424 27.6094 17.34C27.7821 17.256 27.9127 17.1323 28.0014 16.969C28.0901 16.8057 28.1344 16.6027 28.1344 16.36V15.653L28.2114 15.702C28.1881 15.8467 28.1111 15.9867 27.9804 16.122C27.8544 16.2527 27.6957 16.36 27.5044 16.444C27.3131 16.528 27.1171 16.57 26.9164 16.57C26.5664 16.57 26.2537 16.4883 25.9784 16.325C25.7077 16.157 25.4931 15.9307 25.3344 15.646C25.1757 15.3567 25.0964 15.0277 25.0964 14.659C25.0964 14.2903 25.1734 13.9637 25.3274 13.679C25.4861 13.3897 25.7007 13.1633 25.9714 13C26.2467 12.832 26.5547 12.748 26.8954 12.748C27.0354 12.748 27.1707 12.7667 27.3014 12.804C27.4321 12.8367 27.5534 12.8857 27.6654 12.951C27.7774 13.0117 27.8777 13.0793 27.9664 13.154C28.0551 13.2287 28.1274 13.308 28.1834 13.392C28.2394 13.476 28.2744 13.5553 28.2884 13.63L28.1344 13.686V12.825H28.8554V16.276C28.8554 16.57 28.8111 16.829 28.7224 17.053C28.6384 17.2817 28.5147 17.473 28.3514 17.627C28.1881 17.7857 27.9897 17.9047 27.7564 17.984C27.5231 18.068 27.2594 18.11 26.9654 18.11ZM26.9934 15.905C27.2221 15.905 27.4251 15.8513 27.6024 15.744C27.7797 15.6367 27.9174 15.4897 28.0154 15.303C28.1134 15.1163 28.1624 14.9017 28.1624 14.659C28.1624 14.4163 28.1111 14.2017 28.0084 14.015C27.9104 13.8237 27.7727 13.6743 27.5954 13.567C27.4227 13.4597 27.2221 13.406 26.9934 13.406C26.7694 13.406 26.5687 13.462 26.3914 13.574C26.2187 13.6813 26.0811 13.8307 25.9784 14.022C25.8804 14.2087 25.8314 14.421 25.8314 14.659C25.8314 14.897 25.8804 15.1117 25.9784 15.303C26.0811 15.4897 26.2187 15.6367 26.3914 15.744C26.5687 15.8513 26.7694 15.905 26.9934 15.905ZM31.5813 16.57C31.2033 16.57 30.8673 16.4907 30.5733 16.332C30.284 16.1687 30.0553 15.947 29.8873 15.667C29.724 15.387 29.6423 15.065 29.6423 14.701C29.6423 14.4117 29.689 14.148 29.7823 13.91C29.8756 13.672 30.004 13.4667 30.1673 13.294C30.3353 13.1167 30.5336 12.9813 30.7623 12.888C30.9956 12.79 31.2476 12.741 31.5183 12.741C31.7563 12.741 31.978 12.7877 32.1833 12.881C32.3886 12.9697 32.566 13.0933 32.7153 13.252C32.8693 13.4107 32.986 13.5997 33.0653 13.819C33.1493 14.0337 33.189 14.2693 33.1843 14.526L33.1773 14.834H30.1743L30.0133 14.26H32.5543L32.4493 14.379V14.211C32.4353 14.057 32.384 13.9193 32.2953 13.798C32.2066 13.6767 32.0946 13.581 31.9593 13.511C31.824 13.441 31.677 13.406 31.5183 13.406C31.2663 13.406 31.054 13.455 30.8813 13.553C30.7086 13.6463 30.578 13.7863 30.4893 13.973C30.4006 14.155 30.3563 14.3813 30.3563 14.652C30.3563 14.9087 30.41 15.1327 30.5173 15.324C30.6246 15.5107 30.7763 15.6553 30.9723 15.758C31.1683 15.8607 31.3946 15.912 31.6513 15.912C31.8333 15.912 32.0013 15.8817 32.1553 15.821C32.314 15.7603 32.4843 15.6507 32.6663 15.492L33.0303 16.003C32.9183 16.115 32.7806 16.213 32.6173 16.297C32.4586 16.381 32.2883 16.4487 32.1063 16.5C31.929 16.5467 31.754 16.57 31.5813 16.57ZM35.9298 18.04V12.825H36.6578V13.665L36.5458 13.602C36.5738 13.462 36.6531 13.329 36.7838 13.203C36.9144 13.0723 37.0731 12.9673 37.2598 12.888C37.4511 12.804 37.6471 12.762 37.8478 12.762C38.1791 12.762 38.4731 12.8437 38.7298 13.007C38.9864 13.1703 39.1894 13.3943 39.3388 13.679C39.4881 13.9637 39.5628 14.2903 39.5628 14.659C39.5628 15.023 39.4881 15.3497 39.3388 15.639C39.1941 15.9237 38.9934 16.15 38.7368 16.318C38.4801 16.4813 38.1908 16.563 37.8688 16.563C37.6541 16.563 37.4464 16.521 37.2458 16.437C37.0451 16.3483 36.8748 16.2363 36.7348 16.101C36.5948 15.9657 36.5084 15.8257 36.4758 15.681L36.6578 15.583V18.04H35.9298ZM37.7498 15.898C37.9644 15.898 38.1558 15.8443 38.3238 15.737C38.4918 15.6297 38.6248 15.4827 38.7228 15.296C38.8208 15.1093 38.8698 14.897 38.8698 14.659C38.8698 14.421 38.8208 14.211 38.7228 14.029C38.6294 13.8423 38.4988 13.6953 38.3308 13.588C38.1628 13.4807 37.9691 13.427 37.7498 13.427C37.5304 13.427 37.3368 13.4807 37.1688 13.588C37.0008 13.6907 36.8678 13.8353 36.7698 14.022C36.6718 14.2087 36.6228 14.421 36.6228 14.659C36.6228 14.897 36.6718 15.1093 36.7698 15.296C36.8678 15.4827 37.0008 15.6297 37.1688 15.737C37.3368 15.8443 37.5304 15.898 37.7498 15.898ZM40.3458 16.5V11.32H41.0668V13.581L40.9408 13.665C40.9875 13.5017 41.0785 13.3523 41.2138 13.217C41.3491 13.077 41.5101 12.965 41.6968 12.881C41.8835 12.7923 42.0748 12.748 42.2708 12.748C42.5508 12.748 42.7841 12.804 42.9708 12.916C43.1575 13.0233 43.2975 13.189 43.3908 13.413C43.4841 13.637 43.5308 13.9193 43.5308 14.26V16.5H42.8098V14.309C42.8098 14.099 42.7818 13.9263 42.7258 13.791C42.6698 13.651 42.5835 13.5507 42.4668 13.49C42.3501 13.4247 42.2055 13.3967 42.0328 13.406C41.8928 13.406 41.7645 13.4293 41.6478 13.476C41.5311 13.518 41.4285 13.5787 41.3398 13.658C41.2558 13.7373 41.1881 13.8307 41.1368 13.938C41.0901 14.0407 41.0668 14.1527 41.0668 14.274V16.5H40.7098C40.6491 16.5 40.5885 16.5 40.5278 16.5C40.4671 16.5 40.4065 16.5 40.3458 16.5ZM46.1609 16.57C45.8015 16.57 45.4795 16.4883 45.1949 16.325C44.9149 16.157 44.6932 15.9307 44.5299 15.646C44.3665 15.3567 44.2849 15.0277 44.2849 14.659C44.2849 14.2903 44.3665 13.9637 44.5299 13.679C44.6932 13.3897 44.9149 13.1633 45.1949 13C45.4795 12.832 45.8015 12.748 46.1609 12.748C46.5155 12.748 46.8329 12.832 47.1129 13C47.3975 13.1633 47.6215 13.3897 47.7849 13.679C47.9482 13.9637 48.0299 14.2903 48.0299 14.659C48.0299 15.0277 47.9482 15.3567 47.7849 15.646C47.6215 15.9307 47.3975 16.157 47.1129 16.325C46.8329 16.4883 46.5155 16.57 46.1609 16.57ZM46.1609 15.912C46.3802 15.912 46.5762 15.8583 46.7489 15.751C46.9215 15.639 47.0569 15.4897 47.1549 15.303C47.2529 15.1117 47.2995 14.897 47.2949 14.659C47.2995 14.4163 47.2529 14.2017 47.1549 14.015C47.0569 13.8237 46.9215 13.6743 46.7489 13.567C46.5762 13.4597 46.3802 13.406 46.1609 13.406C45.9415 13.406 45.7432 13.462 45.5659 13.574C45.3932 13.6813 45.2579 13.8307 45.1599 14.022C45.0619 14.2087 45.0152 14.421 45.0199 14.659C45.0152 14.897 45.0619 15.1117 45.1599 15.303C45.2579 15.4897 45.3932 15.639 45.5659 15.751C45.7432 15.8583 45.9415 15.912 46.1609 15.912ZM49.2705 16.5V11.887H49.9915V16.5H49.2705ZM48.5075 13.525V12.825H50.8455V13.525H48.5075ZM53.1199 16.57C52.7605 16.57 52.4385 16.4883 52.1539 16.325C51.8739 16.157 51.6522 15.9307 51.4889 15.646C51.3255 15.3567 51.2439 15.0277 51.2439 14.659C51.2439 14.2903 51.3255 13.9637 51.4889 13.679C51.6522 13.3897 51.8739 13.1633 52.1539 13C52.4385 12.832 52.7605 12.748 53.1199 12.748C53.4745 12.748 53.7919 12.832 54.0719 13C54.3565 13.1633 54.5805 13.3897 54.7439 13.679C54.9072 13.9637 54.9889 14.2903 54.9889 14.659C54.9889 15.0277 54.9072 15.3567 54.7439 15.646C54.5805 15.9307 54.3565 16.157 54.0719 16.325C53.7919 16.4883 53.4745 16.57 53.1199 16.57ZM53.1199 15.912C53.3392 15.912 53.5352 15.8583 53.7079 15.751C53.8805 15.639 54.0159 15.4897 54.1139 15.303C54.2119 15.1117 54.2585 14.897 54.2539 14.659C54.2585 14.4163 54.2119 14.2017 54.1139 14.015C54.0159 13.8237 53.8805 13.6743 53.7079 13.567C53.5352 13.4597 53.3392 13.406 53.1199 13.406C52.9005 13.406 52.7022 13.462 52.5249 13.574C52.3522 13.6813 52.2169 13.8307 52.1189 14.022C52.0209 14.2087 51.9742 14.421 51.9789 14.659C51.9742 14.897 52.0209 15.1117 52.1189 15.303C52.2169 15.4897 52.3522 15.639 52.5249 15.751C52.7022 15.8583 52.9005 15.912 53.1199 15.912Z" fill="black"/>
<path d="M68.5085 16.9969C69.7497 16.9969 70.756 15.9907 70.756 14.7494C70.756 13.5082 69.7497 12.502 68.5085 12.502C67.2673 12.502 66.261 13.5082 66.261 14.7494C66.261 15.9907 67.2673 16.9969 68.5085 16.9969Z" stroke="black" stroke-width="1.12373"/>
<path d="M66.8438 20.7427H70.1731C72.5112 20.7427 73.6806 20.7427 74.5204 20.192C74.8829 19.9547 75.195 19.6481 75.4389 19.29C76 18.466 76 17.3175 76 15.0221C76 12.7267 76 11.5782 75.4389 10.7542C75.195 10.3961 74.8829 10.0896 74.5204 9.85218C73.981 9.49782 73.3053 9.37122 72.2707 9.32627C71.777 9.32627 71.3522 8.95918 71.2556 8.48347C71.1817 8.13501 70.9898 7.82274 70.7123 7.59943C70.4348 7.37611 70.0887 7.25546 69.7326 7.25785H67.2843C66.5442 7.25785 65.9066 7.77102 65.7613 8.48347C65.6646 8.95918 65.2399 9.32627 64.7462 9.32627C63.7123 9.37122 63.0366 9.49857 62.4965 9.85218C62.1343 10.0896 61.8224 10.3961 61.5787 10.7542C61.0169 11.5782 61.0169 12.7259 61.0169 15.0221C61.0169 17.3183 61.0169 18.4652 61.578 19.29C61.8207 19.6466 62.1324 19.953 62.4965 20.192C63.3363 20.7427 64.5057 20.7427 66.8438 20.7427Z" stroke="black" stroke-width="1.12373"/>
<path d="M73.7526 12.502H73.0035" stroke="black" stroke-width="1.12373" stroke-linecap="round"/>
</svg>
