<svg width="29" height="30" viewBox="0 0 29 30" fill="none" xmlns="http://www.w3.org/2000/svg">
<path d="M14.1293 0.00016035C14.6206 0.00016035 15.1043 0.0320354 15.5543 0.107035C15.9977 0.164146 16.435 0.260781 16.8612 0.395785C17.2862 0.523285 17.7074 0.68766 18.1249 0.88891C18.5318 1.08204 18.9499 1.31829 19.3681 1.57516C20.0749 2.02516 20.7706 2.38891 21.4793 2.67954C22.8742 3.23911 24.3498 3.57145 25.8499 3.66391C26.6087 3.72016 27.3943 3.74891 28.2068 3.75016V11.2502C28.2068 12.6739 28.0249 14.0277 27.6612 15.3114C27.3117 16.5793 26.8152 17.802 26.1818 18.9545C25.5511 20.1055 24.8048 21.1893 23.9543 22.1889C23.0913 23.2117 22.1565 24.1717 21.1568 25.0614C20.1431 25.9526 19.0768 26.7823 17.9637 27.5458C16.8487 28.3208 15.7274 29.0352 14.5999 29.6889L14.1499 29.957L13.6999 29.6889C12.5433 29.0195 11.4137 28.3046 10.3137 27.5458C9.19461 26.7905 8.12781 25.9604 7.12056 25.0614C6.12155 24.1716 5.1873 23.2117 4.32493 22.1889C3.47734 21.1846 2.72768 20.1015 2.08618 18.9545C1.46417 17.7966 0.968206 16.5752 0.606806 15.3114C0.243173 13.9886 0.0627404 12.6221 0.0705559 11.2502V3.75016C0.883056 3.74891 1.66931 3.72016 2.42931 3.66391C3.17879 3.61296 3.92338 3.50579 4.65681 3.34329C5.37493 3.18204 6.09306 2.96829 6.79993 2.67954C7.53326 2.38311 8.23647 2.01706 8.89993 1.58641C9.72493 1.05016 10.5612 0.654535 11.3862 0.39391C12.2747 0.121828 13.2001 -0.0109962 14.1293 0.00016035ZM26.3206 5.59329C24.9013 5.52382 23.4953 5.28654 22.1318 4.88641C20.7761 4.48094 19.4845 3.88566 18.2956 3.11829C17.6787 2.71442 17.0093 2.39709 16.3062 2.17516C15.6034 1.96321 14.8727 1.85828 14.1387 1.86391C13.3992 1.8594 12.6631 1.96429 11.9543 2.17516C11.2504 2.39048 10.5819 2.70826 9.97056 3.11829C8.77912 3.88908 7.48434 4.48692 6.12493 4.89391C4.79618 5.28016 3.40306 5.51641 1.94556 5.60266V11.2595C1.94556 12.5008 2.10681 13.6933 2.42931 14.837C2.75814 15.9726 3.21086 17.0686 3.77931 18.1052C4.35479 19.1524 5.03314 20.1398 5.80431 21.0527C6.58618 21.9733 7.42056 22.8302 8.32056 23.6439C9.22056 24.4577 10.1637 25.2114 11.1499 25.9052C12.1462 26.6002 13.1424 27.2358 14.1387 27.812C15.1586 27.2193 16.1527 26.5831 17.1181 25.9052C18.112 25.2133 19.0602 24.458 19.9568 23.6439C20.8568 22.8302 21.6931 21.9733 22.4749 21.0527C23.2461 20.1398 23.9244 19.1524 24.4999 18.1052C25.0655 17.0697 25.5115 15.9733 25.8293 14.837C26.162 13.6739 26.3274 12.4693 26.3206 11.2595V5.59329Z" fill="#00A906"/>
<path fill-rule="evenodd" clip-rule="evenodd" d="M21.1193 8.82984L20.2943 8.12109L19.533 8.18672L11.358 17.8392L8.57367 13.8642L7.82367 13.7367L6.95555 14.3573L6.82617 15.1073L10.4055 20.2186L10.8124 20.4436L11.6693 20.4961L12.108 20.3048L21.1737 9.58922L21.1193 8.82984Z" fill="#00A906"/>
</svg>
