<svg width="26" height="23" viewBox="0 0 26 23" fill="none" xmlns="http://www.w3.org/2000/svg">
<path d="M14.2288 14.9537L11.3713 12.13L11.405 12.0962C13.3115 9.97841 14.7355 7.47195 15.5787 4.75H18.875V2.5H11V0.25H8.75V2.5H0.875V4.75H13.4412C12.6875 6.91 11.495 8.96875 9.875 10.7688C8.82875 9.61 7.9625 8.33875 7.27625 7H5.02625C5.8475 8.83375 6.9725 10.5663 8.37875 12.13L2.6525 17.7775L4.25 19.375L9.875 13.75L13.3737 17.2488L14.2288 14.9537ZM20.5625 9.25H18.3125L13.25 22.75H15.5L16.76 19.375H22.1038L23.375 22.75H25.625L20.5625 9.25ZM17.615 17.125L19.4375 12.2537L21.26 17.125H17.615Z" fill="black"/>
</svg>
