<svg width="15" height="15" viewBox="0 0 15 15" fill="none" xmlns="http://www.w3.org/2000/svg">
<g clip-path="url(#clip0_118_1652)">
<path d="M10.4881 11.2359C10.3525 11.2359 10.2147 11.1812 10.1162 11.0718C9.92592 10.8662 9.93905 10.5447 10.1447 10.3543L13.1503 7.57841L10.1447 4.80028C9.93905 4.60997 9.92592 4.28841 10.1162 4.08278C10.3065 3.87716 10.6281 3.86403 10.8337 4.05434L14.2419 7.20434C14.3469 7.30059 14.4037 7.43622 14.4037 7.57622C14.4037 7.71841 14.3447 7.85184 14.2397 7.94809L10.8315 11.1003C10.7353 11.19 10.6106 11.2359 10.4881 11.2359Z" fill="#D81414"/>
<path d="M13.8962 8.08589H6.1065C5.8265 8.08589 5.599 7.85839 5.599 7.57839C5.599 7.29839 5.8265 7.07089 6.1065 7.07089H13.8984C14.1784 7.07089 14.4059 7.29839 14.4059 7.57839C14.4059 7.85839 14.1784 8.08589 13.8962 8.08589Z" fill="#D81414"/>
<path d="M0.913429 14.4471H7.8653C8.1453 14.4471 8.3728 14.2196 8.3728 13.9396C8.3728 13.6596 8.1453 13.4321 7.8653 13.4321H1.42093V1.72463H7.8653C8.1453 1.72463 8.3728 1.49713 8.3728 1.21713C8.3728 0.937125 8.1453 0.709625 7.8653 0.709625H0.913429C0.633429 0.709625 0.405929 0.937125 0.405929 1.21713V13.9396C0.405929 14.2196 0.633429 14.4471 0.913429 14.4471Z" fill="#36495B"/>
</g>
<defs>
<clipPath id="clip0_118_1652">
<rect width="14" height="14" fill="white" transform="matrix(-1 0 0 1 14.4059 0.5784)"/>
</clipPath>
</defs>
</svg>
