<svg width="23" height="22" viewBox="0 0 23 22" fill="none" xmlns="http://www.w3.org/2000/svg">
<path d="M18 18.5401C18 15.1295 14.0625 14.375 11.25 14.375C8.4375 14.375 4.5 15.1295 4.5 18.5401M21.375 11C21.375 16.5919 16.8419 21.125 11.25 21.125C5.65812 21.125 1.125 16.5919 1.125 11C1.125 5.40812 5.65812 0.875 11.25 0.875C16.8419 0.875 21.375 5.40812 21.375 11ZM14.625 7.625C14.625 9.48896 13.114 11 11.25 11C9.38604 11 7.875 9.48896 7.875 7.625C7.875 5.76104 9.38604 4.25 11.25 4.25C13.114 4.25 14.625 5.76104 14.625 7.625Z" stroke="#001A72" stroke-width="1.6875" stroke-linecap="round" stroke-linejoin="round"/>
</svg>
