<svg width="24" height="24" viewBox="0 0 24 24" fill="none" xmlns="http://www.w3.org/2000/svg">
<path fill-rule="evenodd" clip-rule="evenodd" d="M10.5 5.5V5.585C10.2737 5.50499 10.0315 5.48046 9.79373 5.51346C9.55597 5.54647 9.32961 5.63606 9.13365 5.7747C8.9377 5.91333 8.77788 6.09697 8.66762 6.31019C8.55736 6.5234 8.49987 6.75996 8.5 7V7.585C8.27369 7.50499 8.03148 7.48046 7.79373 7.51346C7.55597 7.54647 7.32961 7.63606 7.13365 7.7747C6.9377 7.91333 6.77788 8.09697 6.66762 8.31019C6.55736 8.5234 6.49987 8.75996 6.5 9V14.7625C6.5 17.655 8.845 20 11.7375 20C13.556 20 15.2445 19.0565 16.1975 17.5075L19.0655 12.8475C19.2654 12.5209 19.3331 12.1303 19.2548 11.7555C19.1765 11.3807 18.9581 11.0499 18.6441 10.8306C18.3302 10.6114 17.9444 10.5202 17.5655 10.5758C17.1867 10.6313 16.8433 10.8294 16.6055 11.1295L15.5 12.5315V7C15.5001 6.75996 15.4426 6.5234 15.3324 6.31019C15.2221 6.09697 15.0623 5.91333 14.8663 5.7747C14.6704 5.63606 14.444 5.54647 14.2063 5.51346C13.9685 5.48046 13.7263 5.50499 13.5 5.585V5.5C13.5 5.10218 13.342 4.72064 13.0607 4.43934C12.7794 4.15804 12.3978 4 12 4C11.6022 4 11.2206 4.15804 10.9393 4.43934C10.658 4.72064 10.5 5.10218 10.5 5.5ZM12.5 5.5C12.5 5.36739 12.4473 5.24021 12.3536 5.14645C12.2598 5.05268 12.1326 5 12 5C11.8674 5 11.7402 5.05268 11.6464 5.14645C11.5527 5.24021 11.5 5.36739 11.5 5.5V11.5H10.5V7C10.5 6.86739 10.4473 6.74021 10.3536 6.64645C10.2598 6.55268 10.1326 6.5 10 6.5C9.86739 6.5 9.74021 6.55268 9.64645 6.64645C9.55268 6.74021 9.5 6.86739 9.5 7V12.5H8.5V9C8.5 8.86739 8.44732 8.74021 8.35355 8.64645C8.25979 8.55268 8.13261 8.5 8 8.5C7.86739 8.5 7.74022 8.55268 7.64645 8.64645C7.55268 8.74021 7.5 8.86739 7.5 9V14.7625C7.50011 15.685 7.80128 16.5823 8.35777 17.3181C8.91426 18.0539 9.69567 18.588 10.5833 18.8393C11.471 19.0905 12.4164 19.0453 13.276 18.7103C14.1356 18.3754 14.8624 17.7691 15.346 16.9835L18.214 12.3235C18.2814 12.2142 18.3045 12.0832 18.2785 11.9574C18.2524 11.8316 18.1792 11.7205 18.0739 11.647C17.9685 11.5734 17.8391 11.543 17.712 11.5619C17.5849 11.5807 17.4699 11.6475 17.3905 11.7485L16.2855 13.1505C15.698 13.8955 14.5 13.4805 14.5 12.5315V7C14.5 6.86739 14.4473 6.74021 14.3536 6.64645C14.2598 6.55268 14.1326 6.5 14 6.5C13.8674 6.5 13.7402 6.55268 13.6464 6.64645C13.5527 6.74021 13.5 6.86739 13.5 7V11.5H12.5V5.5Z" fill="#FE4242"/>
<path fill-rule="evenodd" clip-rule="evenodd" d="M12 2C17.523 2 22 6.477 22 12C22 17.523 17.523 22 12 22C6.477 22 2 17.523 2 12C2 6.477 6.477 2 12 2ZM21 12C21 7.0295 16.9705 3 12 3C7.0295 3 3 7.0295 3 12C3 16.9705 7.0295 21 12 21C16.9705 21 21 16.9705 21 12Z" fill="#FE4242"/>
</svg>
