<svg width="24" height="24" viewBox="0 0 24 24" fill="none" xmlns="http://www.w3.org/2000/svg">
<g clip-path="url(#clip0_59_557)">
<path d="M10.5 6.375V7.125C10.5 7.95 11.175 8.625 12 8.625C12.825 8.625 13.5 7.95 13.5 7.125V6.375C13.5 5.55 12.825 4.875 12 4.875C11.175 4.875 10.5 5.55 10.5 6.375ZM12.75 6.375V7.125C12.75 7.5375 12.4125 7.875 12 7.875C11.5875 7.875 11.25 7.5375 11.25 7.125V6.375C11.25 5.9625 11.5875 5.625 12 5.625C12.4125 5.625 12.75 5.9625 12.75 6.375ZM23.25 22.875H22.5C22.275 22.875 22.125 23.025 22.125 23.25C22.125 23.475 22.275 23.625 22.5 23.625H23.25C23.475 23.625 23.625 23.475 23.625 23.25C23.625 23.025 23.475 22.875 23.25 22.875Z" fill="black" fill-opacity="0.4"/>
<path d="M21 22.875H15.675C15.8625 22.575 15.9375 22.2 15.8625 21.8625L14.625 14.25L15.3375 10.6125L16.6875 7.2C16.8 6.9375 16.8375 6.675 16.8375 6.4125V3.75C16.8375 3.1125 16.35 2.625 15.7125 2.625C15.075 2.625 14.5875 3.1125 14.5875 3.75V5.925L13.2375 9.375H10.7625L9.375 5.925V3.75C9.375 3.1125 8.8875 2.625 8.25 2.625C7.6125 2.625 7.125 3.1125 7.125 3.75V6.4125C7.125 6.675 7.1625 6.9375 7.275 7.2L8.625 10.6125L9.375 14.25L9 16.575C8.9625 16.7625 9.1125 16.9875 9.3 16.9875C9.4875 17.025 9.7125 16.875 9.7125 16.6875L10.05 14.625H13.9125L15.1125 21.975C15.15 22.2 15.1125 22.425 14.9625 22.6125C14.8125 22.8 14.625 22.875 14.4 22.875C14.0625 22.875 13.7625 22.65 13.6875 22.3125L12.375 15.675C12.3375 15.4875 12.1875 15.375 12 15.375C11.8125 15.375 11.6625 15.4875 11.625 15.675L10.35 22.3125C10.275 22.65 9.975 22.875 9.6375 22.875C9.4125 22.875 9.1875 22.7625 9.075 22.6125C8.925 22.425 8.8875 22.2 8.925 21.975L9.5625 18.1125C9.6 17.925 9.45 17.7 9.2625 17.7C9 17.625 8.8125 17.775 8.775 18L8.175 21.8625C8.1 22.2375 8.175 22.575 8.3625 22.9125H7.5C7.275 22.9125 7.125 23.0625 7.125 23.2875C7.125 23.5125 7.275 23.6625 7.5 23.6625H21C21.225 23.6625 21.375 23.5125 21.375 23.2875C21.375 23.0625 21.225 22.875 21 22.875ZM10.05 13.875L9.375 10.3875L7.9875 6.9C7.9125 6.75 7.875 6.6 7.875 6.4125V3.75C7.875 3.525 8.025 3.375 8.25 3.375C8.475 3.375 8.625 3.525 8.625 3.75V6.075L10.1625 9.9C10.2375 10.05 10.35 10.125 10.5 10.125H13.5C13.65 10.125 13.8 10.05 13.8375 9.9L15.375 6.075V3.75C15.375 3.525 15.525 3.375 15.75 3.375C15.975 3.375 16.125 3.525 16.125 3.75V6.4125C16.125 6.6 16.0875 6.75 16.0125 6.9375L14.625 10.3875L13.95 13.875H10.05ZM10.9125 22.875C10.9875 22.7625 11.025 22.6125 11.0625 22.4625L12 17.7375L12.9375 22.5C12.975 22.65 13.0125 22.7625 13.0875 22.875H10.9125ZM6 22.875H0.75C0.525 22.875 0.375 23.025 0.375 23.25C0.375 23.475 0.525 23.625 0.75 23.625H6C6.225 23.625 6.375 23.475 6.375 23.25C6.375 23.025 6.225 22.875 6 22.875Z" fill="black" fill-opacity="0.4"/>
<path d="M10.0875 4.125H13.8375C14.0625 4.125 14.2125 3.975 14.2125 3.75C14.2125 3.525 14.0625 3.375 13.8375 3.375H10.0875C9.8625 3.375 9.7125 3.525 9.7125 3.75C9.7125 3.975 9.9 4.125 10.0875 4.125ZM22.875 6V4.125H23.25C23.475 4.125 23.625 3.975 23.625 3.75C23.625 3.525 23.475 3.375 23.25 3.375H22.875V1.5C22.875 1.275 22.725 1.125 22.5 1.125H21.375V0.75C21.375 0.525 21.225 0.375 21 0.375H19.5C19.275 0.375 19.125 0.525 19.125 0.75V3.375H17.625C17.4 3.375 17.25 3.525 17.25 3.75C17.25 3.975 17.4 4.125 17.625 4.125H19.125V6.75C19.125 6.975 19.275 7.125 19.5 7.125H21C21.225 7.125 21.375 6.975 21.375 6.75V6.375H22.5C22.725 6.375 22.875 6.225 22.875 6ZM22.125 5.625H21.375V3.6C21.375 3.375 21.225 3.225 21 3.225C20.775 3.225 20.625 3.375 20.625 3.6V6.375H19.875V1.125H20.625V2.2875C20.625 2.5125 20.775 2.6625 21 2.6625C21.225 2.6625 21.375 2.5125 21.375 2.2875V1.875H22.125V5.625ZM6.3375 3.375H4.875V0.75C4.875 0.525 4.725 0.375 4.5 0.375H3C2.775 0.375 2.625 0.525 2.625 0.75V1.125H1.5C1.275 1.125 1.125 1.275 1.125 1.5V3.375H0.75C0.525 3.375 0.375 3.525 0.375 3.75C0.375 3.975 0.525 4.125 0.75 4.125H1.125V6C1.125 6.225 1.275 6.375 1.5 6.375H2.625V6.75C2.625 6.975 2.775 7.125 3 7.125H4.5C4.725 7.125 4.875 6.975 4.875 6.75V4.125H6.3375C6.5625 4.125 6.7125 3.975 6.7125 3.75C6.7125 3.525 6.525 3.375 6.3375 3.375ZM4.125 6.375H3.375V5.25C3.375 5.025 3.225 4.875 3 4.875C2.775 4.875 2.625 5.025 2.625 5.25V5.625H1.875V1.875H2.625V3.75C2.625 3.975 2.775 4.125 3 4.125C3.225 4.125 3.375 3.975 3.375 3.75V1.125H4.125V6.375Z" fill="black" fill-opacity="0.4"/>
</g>
<defs>
<clipPath id="clip0_59_557">
<rect width="24" height="24" fill="white"/>
</clipPath>
</defs>
</svg>
