<svg width="24" height="26" viewBox="0 0 24 26" fill="none" xmlns="http://www.w3.org/2000/svg">
<g clip-path="url(#clip0_103_1681)">
<path d="M0.512212 12.8241C0.511649 14.8563 1.04265 16.8406 2.05234 18.5896L0.415649 24.5655L6.53115 22.962C8.22262 23.8828 10.1178 24.3652 12.0436 24.3654H12.0487C18.4064 24.3654 23.5816 19.192 23.5844 12.8332C23.5856 9.75192 22.3867 6.85448 20.2085 4.67461C18.0307 2.49492 15.1343 1.29389 12.0482 1.29248C5.68984 1.29248 0.514931 6.46561 0.512306 12.8241" fill="url(#paint0_linear_103_1681)" fill-opacity="0.4"/>
<path d="M0.100313 12.8202C0.0996563 14.9256 0.649687 16.9809 1.69537 18.7925L0 24.9825L6.33478 23.3216C8.08022 24.2732 10.0454 24.775 12.0451 24.7757H12.0502C18.636 24.7757 23.9972 19.4162 24 12.8298C24.0011 9.63781 22.7591 6.63622 20.5031 4.37825C18.2468 2.12056 15.2468 0.876313 12.0502 0.875C5.46337 0.875 0.102938 6.23375 0.100313 12.8202ZM3.87291 18.4805L3.63637 18.105C2.64206 16.524 2.11725 14.697 2.118 12.821C2.12006 7.34647 6.57544 2.8925 12.054 2.8925C14.7071 2.89363 17.2005 3.92788 19.0759 5.80438C20.9512 7.68106 21.9831 10.1757 21.9824 12.8291C21.98 18.3036 17.5245 22.7581 12.0502 22.7581H12.0463C10.2638 22.7572 8.51569 22.2785 6.99113 21.3739L6.62831 21.1588L2.86912 22.1443L3.87291 18.4805Z" fill="url(#paint1_linear_103_1681)"/>
<path d="M9.06358 7.82656C8.8399 7.32941 8.60449 7.31938 8.39177 7.31066C8.21758 7.30316 8.01846 7.30372 7.81952 7.30372C7.6204 7.30372 7.29687 7.37863 7.0234 7.67722C6.74965 7.9761 5.97827 8.69835 5.97827 10.1673C5.97827 11.6363 7.04824 13.056 7.1974 13.2554C7.34674 13.4545 9.26299 16.5655 12.2979 17.7623C14.8201 18.7569 15.3334 18.5591 15.8808 18.5092C16.4283 18.4595 17.6474 17.7871 17.8961 17.0899C18.1451 16.3928 18.1451 15.7952 18.0704 15.6703C17.9958 15.5459 17.7967 15.4712 17.4981 15.322C17.1995 15.1727 15.7315 14.4503 15.4578 14.3506C15.1841 14.2511 14.985 14.2014 14.7859 14.5003C14.5868 14.7988 14.015 15.4712 13.8407 15.6703C13.6666 15.8699 13.4923 15.8948 13.1938 15.7454C12.8951 15.5956 11.9335 15.2807 10.7926 14.2636C9.90499 13.4722 9.30574 12.4948 9.13155 12.1959C8.95737 11.8974 9.1129 11.7356 9.26262 11.5868C9.39677 11.453 9.5613 11.2381 9.71074 11.0638C9.85962 10.8895 9.9093 10.7651 10.0089 10.5659C10.1085 10.3666 10.0586 10.1923 9.98412 10.0429C9.9093 9.89356 9.32908 8.41691 9.06358 7.82656Z" fill="white"/>
</g>
<defs>
<linearGradient id="paint0_linear_103_1681" x1="1158.85" y1="2328.59" x2="1158.85" y2="1.29248" gradientUnits="userSpaceOnUse">
<stop stop-color="#1FAF38"/>
<stop offset="1" stop-color="#60D669"/>
</linearGradient>
<linearGradient id="paint1_linear_103_1681" x1="1200" y1="2411.63" x2="1200" y2="0.875" gradientUnits="userSpaceOnUse">
<stop stop-color="#F9F9F9"/>
<stop offset="1" stop-color="white"/>
</linearGradient>
<clipPath id="clip0_103_1681">
<rect width="24" height="24.1875" fill="white" transform="translate(0 0.875)"/>
</clipPath>
</defs>
</svg>
